<svg id="animation" viewBox="0 0 750 500" preserveAspectRatio="xMidYMax slice">
    <defs>
        <!-- Scene 1 Gradient -->
        <linearGradient id="grad1" x1="-154.32" y1="263.27" x2="-154.32" y2="374.3" gradientTransform="matrix(-1, 0, 0, 1.36, 231.36, -100.14)" gradientUnits="userSpaceOnUse">
            <stop offset="0.07" stop-color="#9c536b" />
            <stop offset="0.98" stop-color="#d98981" />
        </linearGradient>
        <radialGradient id="bg_grad" cx="375" cy="-30" r="318.69" gradientUnits="userSpaceOnUse">
            <stop offset="0.1" stop-color="#F5C54E" id="sun" />
            <stop offset="0.1" stop-color="#FFDBA6" />
            <stop offset="0.0" stop-color="#F7BB93" />
            <stop offset="0.0" stop-color="#F2995E" />
            <stop offset="0.0" stop-color="#f07560" />
            <stop offset="0.8" stop-color="#FFAB93" />
        </radialGradient>
        <linearGradient id="grad2" x1="242.5" y1="356.25" x2="750" y2="356.25" gradientUnits="userSpaceOnUse">
            <stop offset="0" stop-color="#fbbd93" />
            <stop offset="0.98" stop-color="#c46976" />
        </linearGradient>
        <linearGradient id="grad3" x1="467.26" y1="500" x2="467.26" y2="225.47" gradientUnits="userSpaceOnUse">
            <stop offset="0.01" stop-color="#ffb8bd" />
            <stop offset="1" stop-color="#914d64" />
        </linearGradient>
        <linearGradient id="grad4" x1="216.56" y1="227.64" x2="191.14" y2="600.82" gradientUnits="userSpaceOnUse">
            <stop offset="0" stop-color="#70375a" />
            <stop offset="0.96" stop-color="#8a6e95" />
        </linearGradient>
        <linearGradient id="grad5" x1="1" y1="413.12" x2="340.58" y2="413.12" gradientUnits="userSpaceOnUse">
            <stop offset="0" stop-color="#433d6c" />
            <stop offset="1" stop-color="#392e54" />
        </linearGradient>
        <linearGradient id="grad6" x1="454.13" y1="295.96" x2="454.13" y2="498.93" gradientUnits="userSpaceOnUse">
            <stop offset="0" stop-color="#2b2850" />
            <stop offset="0.99" stop-color="#563a6a" />
        </linearGradient>
        <linearGradient id="grad7" x1="434.38" y1="391.96" x2="474.27" y2="516.33" gradientUnits="userSpaceOnUse">
            <stop offset="0.3" stop-color="#1c1b38" />
            <stop offset="0.38" stop-color="#201e3e" />
            <stop offset="0.9" stop-color="#383263" />
        </linearGradient>
        <linearGradient id="grad8" x1="259.18" y1="335.54" x2="213.65" y2="500.39" gradientUnits="userSpaceOnUse">
            <stop offset="0" stop-color="#0e0a1a" />
            <stop offset="0.3" stop-color="#100d1f" />
            <stop offset="0.64" stop-color="#17142c" />
            <stop offset="0.95" stop-color="#201f3f" />
        </linearGradient>
        <linearGradient id="grad9" x1="508.16" y1="321.39" x2="726.97" y2="623.69" gradientUnits="userSpaceOnUse">
            <stop offset="0.01" stop-color="#120e22" />
            <stop offset="1" stop-color="#221d42" />
        </linearGradient>

        <!-- Scene2 Gradient -->
        <linearGradient id="lg4" x1="641.98" y1="274.9" x2="638.02" y2="334.36" gradientUnits="userSpaceOnUse">
            <stop offset="0" stop-color="#2c2c50" />
            <stop offset="1" stop-color="#434375" />
        </linearGradient>
        <linearGradient id="lg5" x1="172.37" y1="286.02" x2="171.33" y2="343.08" xlink:href="#lg4" />
        <linearGradient id="lg6" x1="505.71" y1="261.55" x2="504.61" y2="322.08" xlink:href="#lg4" />
        <linearGradient id="lg7" x1="301.32" y1="260.99" x2="295.66" y2="345.9" xlink:href="#lg4" />
        <linearGradient id="lg8" x1="375.59" y1="381.01" x2="373.3" y2="507.08" xlink:href="#lg4" />

        <!-- Scene3 Gradient -->
        <radialGradient id="bg2-grad" cx="365.22" cy="500" r="631.74" gradientTransform="translate(750 552.6) rotate(180) scale(1 1.11)" gradientUnits="userSpaceOnUse">
            <stop offset="0" stop-color="hsla(349, 94%, 75%, 1)" />
            <stop offset="0.12" stop-color="hsla(342, 49%, 62%, 1)" />
            <stop offset="0.18" stop-color="hsla(328, 37%, 56%, 1)" />
            <stop offset="0.33" stop-color="hsla(281, 33%, 48%, 1)" />
            <stop offset="0.41" stop-color="hsla(268, 38%, 48%, 1)" />
            <stop offset="0.45" stop-color="hsla(266, 38%, 43%, 1)" />
            <stop offset="0.55" stop-color="hsla(261, 37%, 32%, 1)" />
            <stop offset="0.64" stop-color="hsla(253, 36%, 24%, 1)" />
            <stop offset="0.72" stop-color="hsla(244, 33%, 19%, 1)" />
            <stop offset="0.78" stop-color="hsla(240, 33%, 17%, 1)" />
        </radialGradient>

        <radialGradient id="fstar-grad" cx="1362.39" cy="-53.7" r="39.39" gradientTransform="matrix(0.89, -0.45, -0.45, -0.89, -473.7, 640.57)" gradientUnits="userSpaceOnUse">
            <stop offset="0" stop-color="#fff" />
            <stop offset="0.06" stop-color="#fff" stop-opacity="0.8" />
            <stop offset="0.12" stop-color="#fff" stop-opacity="0.62" />
            <stop offset="0.19" stop-color="#fff" stop-opacity="0.45" />
            <stop offset="0.26" stop-color="#fff" stop-opacity="0.31" />
            <stop offset="0.33" stop-color="#fff" stop-opacity="0.2" />
            <stop offset="0.41" stop-color="#fff" stop-opacity="0.11" />
            <stop offset="0.49" stop-color="#fff" stop-opacity="0.05" />
            <stop offset="0.59" stop-color="#fff" stop-opacity="0.01" />
            <stop offset="0.72" stop-color="#fff" stop-opacity="0" />
        </radialGradient>

        <linearGradient id="linear-gradient" x1="472" y1="461.56" x2="872.58" y2="461.56" gradientUnits="userSpaceOnUse">
            <stop offset="0" stop-color="#fd75a8" />
            <stop offset="1" stop-color="#5a2d81" />
        </linearGradient>
        <linearGradient id="linear-gradient-2" x1="214.61" y1="508.49" x2="166.09" y2="361.12" xlink:href="#linear-gradient" />
        <linearGradient id="linear-gradient-3" x1="57.65" y1="508.01" x2="448.08" y2="508.01" xlink:href="#linear-gradient" />
        <linearGradient id="linear-gradient-4" x1="193.48" y1="508.3" x2="761.05" y2="508.3" xlink:href="#linear-gradient" />
    </defs>

    <rect id="bg" width="750" height="500" opacity="0.8" fill="url(#bg_grad)" />

    <g id="clouds" fill="#fefefe">
        <path id="cloud4" transform='translate(600 0)'
            d="M402.34,341.68c9.9-10.24,23.76-7.43,36.05-5.48C448,332,458.88,329,468.9,334c-.95-7.91,8.65-14.92,15.9-11.61-3.34-11.77,13-13.9,20.53-8.34A13.53,13.53,0,0,1,522,310.16c2.64-18.11,27.85-24.13,38.38-9.17,3.54-5.51,12.12-6.88,17.2-2.74,6.59-43.22,70.78-27.93,65.83,12.62,14.7-4.43,32,6.72,34.08,21.93,5.76-2.23,29.28,1,21.76,9.26" />

        <path id="cloud3" transform='translate(600 0)'
            d="M382.94,363.16c-7-10.5-18.72-9.06-28.19-4.53-12.19-6.71-26.73-11.74-39.62-3.13,1-15.45-18-25.51-28-12.41-14.59-29.67-56.68-34.41-72-3.09-1.41,4-4.73,6.07-8.1,2.88-23.13-25.66-57.12-30.25-67.73,8.21-13.05-1.88-33.42-9.15-37.47,10.07a38.08,38.08,0,0,0-36.36,2.11" />

        <path id="cloud2" transform='translate(-600 0)'
            d="M506.86,233.56c9.62-3.21,23.27-4,33.88-2.17,0-5.7,10.4-6.68,14-3.58,10.32-12.45,29.93-5.12,40.08,0,10.06-6.52,27.67-9.72,33.93,2.42,5.53-.13,15.88-3.23,18.8,2.94a31.53,31.53,0,0,1,18.21.64" />

        <path id="cloud1" transform='translate(-600 0)'
            d="M402.18,271.3c-7.57-7.46-18.46-7.52-28.05-5.3-6.75-8.79-20.54-13.18-27.24-1.45-10.4-11.06-30.66-24.2-37.74-2.24a13.1,13.1,0,0,0-17.76,1.47c-11.23-25.69-58.46-41.29-64.24-4.06-9-8.26-20.15-2.62-27.47,4.4-11-2.87-22.18-7.58-31.72,2.7-8.44-.75-18.1-2.8-24.71,4.57" />
    </g>


    <!-- SCENE 2 -->
    <g id="scene2">

        <g id="bats" style="opacity: 0;">
            <path
                d="M145.9,158.6a12.8,12.8,0,0,1-11.3,7.3c-6.8.2-11.3-5-12.3-11.5-3.5,3.2-5.2,9.1-10.4,9.9-5,.8-7.8-4.6-8.3-9.1-3.6,2.9-6,8.8-11.5,8-5.2-.7-5.1-9.4-4.8-13.5l3.3-24.7L110,137.9Z"
                fill="#112129" />
            <path
                d="M235,226.2a13.4,13.4,0,0,1-11.8,7.7c-7,.2-11.6-5.2-12.6-11.9-3.6,3.3-5.4,9.4-10.7,10.3-5.2.8-8.1-4.7-8.6-9.4-3.7,3-6.2,9-11.9,8.3-5.4-.8-5.3-9.7-5-14l3.5-25.5,21.5,14Z"
                fill="#112129" />
            <path
                d="M393.4,146.1h0c-1.2.3-2.4-.1-2.7-1.3l-3.9-14.5-.3-.8-2.9-10.7c-.3-1.2.3-2.4,1.5-2.7h0c1.2-.3,2.4.3,2.7,1.4l3.8,14.3.3,1.2,2.9,10.5C395.1,144.6,394.6,145.8,393.4,146.1Z"
                fill="#112129" fill-rule="evenodd" />
            <path
                d="M429.4,146.2h0a2,2,0,0,1-2.7-1.3l-5.6-20.8-2.3-8.7c-.3-1.1.3-2.3,1.5-2.7h0a2.1,2.1,0,0,1,2.7,1.4l5.6,20.7,2.3,8.7A2.2,2.2,0,0,1,429.4,146.2Z"
                fill="#112129" />
            <path
                d="M393.4,146.1a1.9,1.9,0,0,1-1.1-3.6,65.6,65.6,0,0,1,8.4-4.4,63,63,0,0,1,29-6.1,1.9,1.9,0,1,1-.2,3.8,59.2,59.2,0,0,0-27.3,5.7,61.6,61.6,0,0,0-7.9,4.1A1.7,1.7,0,0,1,393.4,146.1Zm35.9,0a1.9,1.9,0,0,1-.9-3.6,74.2,74.2,0,0,1,8.4-4.4,62.1,62.1,0,0,1,29-6.1,1.9,1.9,0,0,1-.2,3.8A58.8,58.8,0,0,0,438.3,141a56.5,56.5,0,0,0-8,4.1A1.7,1.7,0,0,1,429.3,146.1Z"
                fill="#112129" />
        </g>

        <g id="hills2">
            <path id="h2-6" d="M524.28,418.82c6.36,0,80.19-14.81,103.12-36.53S655.28,345.8,679,359.64s33.69,18.54,46.63,18.82a158.62,158.62,0,0,1,23.88,2.4V447L632,458.92Z" fill="url(#lg4)" />
            <path id="h2-5" d="M294.06,498.2l49.09-66.93s-64-6.48-93.59-31.29-63.47-49.78-87.15-41.46-81.7,4.44-98.73,15S.1,387.08.1,387.08l.37,60.18L209.75,498.2Z" fill="url(#lg5)" />
            <path id="h2-4" d="M264.94,449.2s61-16.39,94.07-37.28,61.37-37.2,73.53-36.12,69.9-40,80.18-42.62,13.55-.37,29,1.85,22-5.27,34.52,6.39,43.29,34.86,75.51,48.52c25.88,11,91.48,28.88,91.48,28.88l-31.58,67.73-326.93,9.27Z" fill="url(#lg6)" />
            <path id="h2-3" d="M.47,469.58V420s113.73-2.74,171.72-26.68,101.69-72.29,134.53-52,31.37-18.48,61.9,13.28S446.68,393.48,478,406.86s113.08,26.06,113.08,26.06l-59.28,53.4L272.55,485Z" fill="url(#lg7)" />
            <path id="h2-2" d="M749.55,500V398.27l-38.48-6.67s-29.86,12.13-63,11.53-39.61-7.26-70.33-13.41-72.58,21.4-105.61,21.4-75.5-17.78-110.64-17.78c-24.85,0-90.08,20.12-110.82,18.48s-51.11-20.42-82-6.26S.47,409.26.47,409.26V500Z"
                fill="url(#lg8)" />
            <path id="h2-1" style="opacity: 0;" d="M0,500V295.87l45.31-9.34s85.5-4.94,140.68,43.26S301.87,355,339.14,355,554.51,238.91,594,238.91s156,79.27,156,79.27V500Z"
                fill="#3d3a77" />
        </g>
    </g>

    <!-- Scene 3 -->
    <g id="scene3" style="visibility: hidden;">
        <rect id="bg2" y="-59.8" width="750" height="612.4" transform="translate(750 492.8) rotate(180)" fill="url(#bg2-grad)" />

        <g id="fstar">
            <image width="707" height="429" transform="translate(728.46 16.5) scale(0.24)" xlink:href="https://i.ibb.co/TWfhqRG/fstar.png" />
            <circle cx="768.6" cy="78.72" r="39.39" transform="translate(64.22 396.2) rotate(-30.11)" fill="url(#fstar-grad)" style="mix-blend-mode: overlay" />
        </g>

        <g id="stars" fill="#fff" style="opacity: 0;">
            <path d="M295.9,72.4l-1.4,2.8a.5.5,0,0,1-.9,0l-1.4-2.8a.4.4,0,0,0-.4-.3l-2.8-.4a.5.5,0,0,1-.3-.9l2-2a.7.7,0,0,0,.1-.4l-.5-2.9c-.1-.4.4-.8.8-.6l2.6,1.3a.6.6,0,0,0,.5,0l2.5-1.3c.4-.2.9.2.8.6l-.5,2.9a.5.5,0,0,0,.1.4l2,2a.5.5,0,0,1-.3.9l-2.8.4C296.1,72.1,296,72.2,295.9,72.4Z"/>
            <path d="M320.4,108.7l-1.5,3a.6.6,0,0,1-1,0l-1.5-3a.5.5,0,0,0-.4-.3l-3.1-.4c-.5-.1-.7-.7-.3-1l2.2-2.1a.5.5,0,0,0,.1-.5l-.5-3.1c-.1-.5.4-.9.9-.7l2.7,1.5a.5.5,0,0,0,.6,0l2.7-1.5c.5-.2,1,.2.9.7l-.5,3.1a.7.7,0,0,0,.2.5l2.2,2.1a.6.6,0,0,1-.3,1l-3.1.4A.4.4,0,0,0,320.4,108.7Z"/>
            <path d="M349,59.4l-1.1,2.1a.4.4,0,0,1-.7,0L346,59.4a.3.3,0,0,0-.3-.2l-2.2-.3c-.3,0-.4-.5-.2-.7l1.6-1.5a.4.4,0,0,0,.1-.3l-.4-2.3a.5.5,0,0,1,.7-.5l2,1.1a.6.6,0,0,0,.4,0l2-1.1c.3-.2.7.1.6.5l-.4,2.3a.3.3,0,0,0,.1.3l1.6,1.5a.5.5,0,0,1-.2.7l-2.2.3Z"/>
            <path d="M349,184l-1.1,2.1a.4.4,0,0,1-.7,0L346,184a.3.3,0,0,0-.3-.2l-2.2-.3a.4.4,0,0,1-.2-.7l1.6-1.5a.4.4,0,0,0,.1-.3l-.4-2.3a.5.5,0,0,1,.7-.5l2,1.1a.6.6,0,0,0,.4,0l2-1.1a.5.5,0,0,1,.6.5l-.3,2.3a.3.3,0,0,0,.1.3l1.6,1.5a.5.5,0,0,1-.2.7l-2.2.3Z"/>
            <path d="M414.4,122.4l-1.1,2.1a.4.4,0,0,1-.7,0l-1.1-2.1a.3.3,0,0,0-.3-.2l-2.2-.3c-.3,0-.4-.5-.2-.7l1.6-1.5a.4.4,0,0,0,.1-.3l-.4-2.3a.5.5,0,0,1,.7-.5l2,1.1a.6.6,0,0,0,.4,0l2-1.1a.5.5,0,0,1,.6.5l-.3,2.3a.3.3,0,0,0,.1.3l1.6,1.5a.5.5,0,0,1-.2.7l-2.2.3Z"/>
            <path d="M448.3,209.5l-1.1,2.1a.4.4,0,0,1-.7,0l-1.1-2.1a.3.3,0,0,0-.3-.2l-2.2-.3a.4.4,0,0,1-.2-.7l1.6-1.5a.4.4,0,0,0,.1-.3l-.4-2.3a.5.5,0,0,1,.7-.5l2,1.1a.6.6,0,0,0,.4,0l2-1.1a.5.5,0,0,1,.6.5l-.3,2.3a.3.3,0,0,0,.1.3l1.6,1.5a.5.5,0,0,1-.2.7l-2.2.3Z"/>
            <path d="M394.2,81.2l-1.1,2.1a.4.4,0,0,1-.7,0l-1.1-2.1a.3.3,0,0,0-.3-.2l-2.2-.3a.4.4,0,0,1-.2-.7l1.6-1.5a.4.4,0,0,0,.1-.3l-.4-2.3a.5.5,0,0,1,.7-.5l2,1.1a.6.6,0,0,0,.4,0l2-1.1a.5.5,0,0,1,.6.5l-.3,2.3a.3.3,0,0,0,.1.3l1.6,1.5a.5.5,0,0,1-.2.7l-2.2.3Z"/>
            <path d="M427.3,40.8l-1.1,2.1a.4.4,0,0,1-.7,0l-1.1-2.1a.3.3,0,0,0-.3-.2l-2.2-.3c-.3,0-.4-.5-.2-.7l1.6-1.5a.4.4,0,0,0,.1-.3l-.4-2.3c-.1-.4.3-.7.7-.5l2,1.1a.6.6,0,0,0,.4,0l2-1.1c.3-.2.7.1.6.5l-.3,2.3a.3.3,0,0,0,.1.3l1.6,1.5a.5.5,0,0,1-.2.7l-2.2.3Z"/>
            <path d="M531.9,38.4l-1.6,3.1a.7.7,0,0,1-1.2,0l-1.6-3.1a.5.5,0,0,0-.5-.3l-3.3-.5a.7.7,0,0,1-.4-1.1l2.4-2.3a.7.7,0,0,0,.2-.5l-.6-3.3c-.1-.6.5-1,1-.7l2.9,1.6a.9.9,0,0,0,.7,0l2.9-1.6c.5-.3,1.1.1,1,.7l-.6,3.3a.5.5,0,0,0,.2.5l2.4,2.3a.7.7,0,0,1-.4,1.1l-3.3.5A.6.6,0,0,0,531.9,38.4Z"/>
            <path d="M526.1,136.6l-1.6,3.1a.7.7,0,0,1-1.2,0l-1.6-3.1a.5.5,0,0,0-.5-.3l-3.3-.5a.7.7,0,0,1-.4-1.1l2.4-2.3a.7.7,0,0,0,.2-.5l-.6-3.3c-.1-.6.5-1,1-.7l2.9,1.6a.9.9,0,0,0,.7,0l2.9-1.6c.5-.3,1.1.1,1,.7l-.6,3.3a.5.5,0,0,0,.2.5l2.4,2.3a.7.7,0,0,1-.4,1.1l-3.3.5A.6.6,0,0,0,526.1,136.6Z"/>
            <path d="M484.9,79.1l-1.1,2.1a.4.4,0,0,1-.7,0L482,79.1a.3.3,0,0,0-.3-.2l-2.2-.3c-.3,0-.4-.5-.2-.7l1.6-1.5a.4.4,0,0,0,.1-.3l-.4-2.3c-.1-.4.3-.7.7-.5l2,1.1a.6.6,0,0,0,.4,0l2-1.1c.3-.2.7.1.6.5l-.3,2.3a.3.3,0,0,0,.1.3l1.6,1.5a.5.5,0,0,1-.2.7l-2.2.3Z"/>
            <path d="M570.6,166.8,569,171a.8.8,0,0,1-1.4,0l-1.8-3.7a.6.6,0,0,0-.6-.4l-3.9-.5c-.6-.1-.8-.9-.4-1.3l2.8-2.7a.6.6,0,0,0,.2-.6l-.7-3.9c-.1-.6.6-1.1,1.1-.8l3.5,1.8a.7.7,0,0,0,.8,0l3.5-1.8c.6-.3,1.3.2,1.1.8l-.7,3.9a.8.8,0,0,0,.2.6l2.8,2.7a.7.7,0,0,1-.4,1.3l-3.9.5A.6.6,0,0,0,570.6,166.8Z"/>
            <path d="M596.9,81l-1.7,3.4a.7.7,0,0,1-1.2,0l-1.7-3.4a.7.7,0,0,0-.5-.3L588,80c-.5-.1-.8-.8-.4-1.2l2.5-2.4a.7.7,0,0,0,.2-.6l-.6-3.6c-.1-.5.5-1,1-.8l3.1,1.7a.7.7,0,0,0,.7,0l3.1-1.7c.5-.2,1.1.3,1,.8l-.6,3.6a.5.5,0,0,0,.2.6L601,78a.6.6,0,0,1-.4,1.2l-3.6.5A.5.5,0,0,0,596.9,81Z"/>
            <path d="M36.4,66.1l-1.6,3.1a.7.7,0,0,1-1.2,0L32,66.1a.5.5,0,0,0-.5-.3l-3.3-.5a.7.7,0,0,1-.4-1.1l2.4-2.3a.7.7,0,0,0,.2-.5l-.6-3.3c-.1-.6.5-1,1-.7l2.9,1.6a.9.9,0,0,0,.7,0l2.9-1.6c.5-.3,1.1.1,1,.7l-.6,3.3a.5.5,0,0,0,.2.5l2.4,2.3a.7.7,0,0,1-.4,1.1l-3.3.5A.6.6,0,0,0,36.4,66.1Z"/>
            <path d="M37.4,161.5l-1.1,2.1a.4.4,0,0,1-.7,0l-1.1-2.1a.3.3,0,0,0-.3-.2l-2.2-.3a.4.4,0,0,1-.2-.7l1.6-1.5a.4.4,0,0,0,.1-.3l-.4-2.3a.5.5,0,0,1,.7-.5l2,1.1a.6.6,0,0,0,.4,0l2-1.1c.3-.2.7.1.6.5l-.3,2.3a.3.3,0,0,0,.1.3l1.6,1.5a.5.5,0,0,1-.2.7l-2.2.3Z"/>
            <path d="M103.3,202.6l-1.6,3.1a.7.7,0,0,1-1.2,0l-1.6-3.1a.5.5,0,0,0-.5-.3l-3.3-.5a.7.7,0,0,1-.4-1.1l2.4-2.3a.7.7,0,0,0,.2-.5l-.6-3.3c-.1-.6.5-1,1-.7l2.9,1.6a.9.9,0,0,0,.7,0l2.9-1.6c.5-.3,1.1.1,1,.7l-.6,3.3a.5.5,0,0,0,.2.5l2.4,2.3a.7.7,0,0,1-.4,1.1l-3.3.5A.6.6,0,0,0,103.3,202.6Z"/>
            <path d="M130.8,139.1l-1.1,2.1a.4.4,0,0,1-.7,0l-1.1-2.1a.3.3,0,0,0-.3-.2l-2.2-.3c-.3,0-.4-.5-.2-.7l1.6-1.5a.4.4,0,0,0,.1-.3l-.4-2.3a.5.5,0,0,1,.7-.5l2,1.1a.6.6,0,0,0,.4,0l2-1.1c.3-.2.7.1.6.5l-.3,2.3a.3.3,0,0,0,.1.3l1.6,1.5a.5.5,0,0,1-.2.7l-2.2.3Z"/>
            <path d="M190,41.6l-1.1,2.1a.4.4,0,0,1-.7,0L187.1,42a.3.3,0,0,0-.3-.2l-2.2-.3c-.3,0-.4-.5-.2-.7l1.6-1.5a.4.4,0,0,0,.1-.3l-.4-2.3c-.1-.4.3-.7.7-.5l2,1.1a.6.6,0,0,0,.4,0l2-1.1c.3-.2.7.1.6.5l-.3,2.3a.3.3,0,0,0,.1.3l1.6,1.5a.5.5,0,0,1-.2.7l-2.2.3Z"/>
            <path d="M223.6,173.1l-1.1,2.1a.4.4,0,0,1-.7,0l-1.1-2.1a.3.3,0,0,0-.3-.2l-2.2-.3a.4.4,0,0,1-.2-.7l1.6-1.5a.4.4,0,0,0,.1-.3l-.4-2.3a.5.5,0,0,1,.7-.5l2,1.1a.6.6,0,0,0,.4,0l2-1.1a.5.5,0,0,1,.6.5l-.3,2.3a.3.3,0,0,0,.1.3l1.6,1.5a.5.5,0,0,1-.2.7l-2.2.3Z"/>
            <path d="M223.6,97.5l-1.1,2.1a.4.4,0,0,1-.7,0l-1.1-2.1a.3.3,0,0,0-.3-.2l-2.2-.3a.4.4,0,0,1-.2-.7l1.6-1.5a.4.4,0,0,0,.1-.3l-.4-2.3a.5.5,0,0,1,.7-.5l2,1.1a.6.6,0,0,0,.4,0l2-1.1c.3-.2.7.1.6.5l-.3,2.3a.3.3,0,0,0,.1.3l1.6,1.5a.5.5,0,0,1-.2.7l-2.2.3Z"/>
            <path d="M715.2,139.1l-1.1,2.1a.4.4,0,0,1-.7,0l-1.1-2.1a.3.3,0,0,0-.3-.2l-2.2-.3c-.3,0-.4-.5-.2-.7l1.6-1.5a.4.4,0,0,0,.1-.3l-.4-2.3a.5.5,0,0,1,.7-.5l2,1.1a.6.6,0,0,0,.4,0l2-1.1c.3-.2.7.1.6.5l-.3,2.3a.3.3,0,0,0,.1.3l1.6,1.5a.5.5,0,0,1-.2.7l-2.2.3Z"/>
        </g>
        <g id="hills3" transform="translate(0, -110)">
            <path id="h3-5" d="M263.5,608.3h489.9V430.1c-96.3-50.3-214.1-45.1-246.8-41.5S386.9,438,350.5,438s-57.2-38.1-86.9-38.1S208.9,470.8,179.3,520C154.2,562.2,113.2,582.3,46.2,587.1l-46.2,11Z" fill="url(#linear-gradient)"/>
            <path id="h3-4" d="M263.5,608.3H0V488.4s54.9-106.5,106.5-106.5,64.8,22.3,106.5,22.3,50.5-22.3,92.2-22.3,50.5,22.3,92.2,22.3c8,0,77.8,29.7,77.8,29.7l-2,77.9Z" fill="url(#linear-gradient-2)"/>
            <path id="h3-3" d="M301,608.3s-24.4-94.9,61.6-104.7S448.1,431.8,448.1,431.8V608.3Z" fill="url(#linear-gradient-3)"/>
            <path id="h3-2" d="M243.6,608.3l-65-78c68.9,3.6,95.2,11,148.5-13.8S450.6,484.1,507,484.1s25.3,94,101,94,116-104,153-104v134.2Z" fill="url(#linear-gradient-4)"/>
            <path id="h3-1" d="M753.4,608.3V484.1h-67.2c-33.3,0-52.7,11.2-99.3,11.2s-49.6-24.1-99.3-24.1-47.5,24.1-94.1,24.1S344,471.2,292.4,471.2,218.3,541,174.3,593.1l69.3,15.1Z" fill="#3d275c"/>
        </g>
    </g>


    <!-- SCENE 1 -->
    <g id="scene1">
        <g id="hills1">
            <path id="h1-1" d="M0,499.5V304.3l34.2-35.8s19.5-15.9,38.4-15.9,69.3,44,98.3,44,72.1-32.4,97-32.4S302,290,321,290s54.4-41.5,76.1-41.5S463,290,463,290s59.4-48.2,85.2-48.2,68.1,37.9,68.1,37.9l48.8-23c15.2-9.9,66.5,24.3,84.9,26.6v216.2Z" fill="url(#grad1)" />
            <path id="h1-2" d="M750,499.5V304.3l-34.2-35.8s-19.5-15.9-38.4-15.9-69.3,44-98.3,44-72.1-32.4-97-32.4S448,290,429,290s-54.4-41.5-76.1-41.5S287,290,287,290s-59.4-48.2-85.2-48.2-68.1,37.9-68.1,37.9l-48.8-23c-15.2-9.9-66.5,24.3-84.9,26.6v216.2Z" fill="url(#grad2)" />
            <path id="h1-3" d="M473.8,355.5c-27.1,0-53.7-43-88.2-43s-39,39.1-68.4,43-70.7-39.3-117.6-37.4c-23.3,1-49.2,14.6-69.8,27.3-18.6,11.4-42.1,20-66.8,20H0V499.5H750V365.4c-12.9,0-34.7-8.6-69.8-27.3-46.1-24.5-87.6-43-112.1-43s-67.2,60.4-94.3,60.4Z" fill="url(#grad3)" />
            <path id="h1-4" d="M352,375.3c-32.4,0-56.7-10-82.2-10s-52.9,23.7-77.8,10-65-57.2-113.9-21.6S0,385.1,0,385.1V500H454.3V375.3Z" fill="url(#grad4)" />
            <path id="h1-5" d="M0,500V383.1s86.4-17.7,112.5-23.9,49.5-36.7,78.5-36.7,30.1,21.5,52.7,21.5,72.2-21.5,96.9-21.5v177.5Z" fill="url(#grad5)" />
            <path id="h1-6" d="M750,500V395.6s-75.5-15.3-99.7-15.3-51.6-34-73.4-34S448.7,394.4,425,398s-62.8-25.1-88.5-25.1S265.2,401,232,414.7s-69.8,22.8-96.6,22.8S81,414.6,46.9,432.8,0,456.5,0,456.5V500Z" fill="url(#grad6)" />
            <path id="h1-7" d="M389.7,499.5V461.2s5-38,31.8-38,37.8-9,53.7-9,44.7,9,70.4,9,38.4-14.1,62.9-14.1,30.9,13.5,53.2,13.5,34.6-13.5,55.7-13.5,32.7,13.5,32.7,13.5V499.5Z" fill="url(#grad7)" />
            <path id="h1-8" d="M0,499.5V435.9s38.6,10.7,70.6,10.7,49-34.6,81-34.6,38.4,14.1,57,14.1,54.9-15,76.1-15v88.5Z" fill="url(#grad8)" />
            <path id="h1-9" d="M750,499.5V407.9S684.5,424,648.1,424s-26-15.2-51.3-15.2-67.8,16.8-93.9,16.8-51.3-16.8-76-16.8-49.8,10.6-76.1,16.8-40.4,31.7-65.9,31.7-75.1,4.5-93.9,21.1-47.3,21.1-47.3,21.1V500h606.3Z" fill="url(#grad9)" />
        </g>
    </g>
</svg>